<svg width="876" height="408" viewBox="0 0 876 408" fill="none" xmlns="http://www.w3.org/2000/svg">
<g clip-path="url(#clip0_31_1893)">
<path d="M875.479 0V368.363C799.449 375.924 694.598 373.18 552.583 346.178C272.168 292.875 84.5882 340.077 -0.520508 371.837V0H875.479Z" fill="#6327FE"/>
<path d="M875.479 368.363V406.516C799.155 411.449 694.216 405.027 552.76 372.859C274.871 309.66 85.8515 349.914 -0.520508 378.639V371.837C84.5882 340.077 272.168 292.875 552.583 346.178C694.598 373.18 799.449 375.924 875.479 368.363Z" fill="white"/>
<path d="M290.739 59.725C295.733 59.725 299.552 61.5056 302.225 65.0378C304.37 67.8401 305.457 71.2555 305.457 75.2547C305.457 82.4357 303.048 90.6092 298.201 99.7752C293.97 107.686 288.682 114.78 282.336 121.085C278.165 125.142 274.904 127.186 272.524 127.186C270.967 127.186 269.498 126.398 268.176 124.85C267.207 123.741 266.736 122.486 266.736 121.085C266.736 118.487 268.999 115.538 273.552 112.211C279.957 107.482 285.039 102.315 288.858 96.681C294.44 88.5366 297.231 81.6767 297.231 76.0428C297.231 73.7659 296.732 72.0436 295.733 70.9344C294.734 69.8251 293.236 69.2705 291.209 69.2705C287.125 69.2705 281.308 72.2188 273.787 78.1446C265.238 84.8002 256.19 93.8494 246.671 105.322C234.538 119.888 225.313 134.221 218.997 148.349C212.446 163.003 209.185 175.497 209.185 185.831C209.185 190.793 210.624 194.997 213.533 198.471C216.735 202.382 220.642 204.338 225.254 204.338C233.304 204.338 243.41 198.12 255.602 185.714C259.245 181.948 263.681 176.46 268.881 169.309C272.318 164.726 274.492 161.456 275.462 159.559C276.578 157.428 277.871 156.348 279.369 156.348C281.014 156.348 281.808 157.136 281.808 158.683C281.808 162.011 277.636 169.484 269.322 181.102C262.389 190.793 254.78 198.704 246.436 204.834C237.064 211.723 228.192 215.139 219.878 215.139C211.182 215.139 204.425 211.256 199.666 203.491C196.611 198.529 195.083 192.895 195.083 186.531C195.083 170.564 202.663 150.422 217.851 126.076C230.807 105.38 244.468 88.7118 258.834 76.0428C271.231 65.1545 281.896 59.725 290.739 59.725Z" fill="white"/>
<path d="M328.815 130.805C334.925 130.805 337.981 134.513 337.981 141.898C337.981 151.735 333.398 164.2 324.261 179.263C314.302 195.61 304.666 203.783 295.353 203.783C291.034 203.783 287.891 201.798 285.864 197.799C284.835 195.814 284.307 193.391 284.307 190.589C284.307 181.131 287.568 170.856 294.119 159.763C300.23 149.488 307.398 141.489 315.653 135.797C320.471 132.469 324.849 130.805 328.815 130.805ZM317.21 172.724C315.359 171.235 314.419 170.097 314.419 169.279C314.419 168.696 315.594 167.061 318.003 164.404C324.702 156.932 328.051 150.918 328.051 146.335C328.051 145.751 327.875 145.167 327.493 144.554C326.905 143.445 325.965 142.891 324.702 142.891C322.322 142.891 318.826 145.197 314.214 149.78C308.25 155.705 303.726 161.806 300.582 168.083C296.939 175.264 295.118 181.219 295.118 185.948C295.118 187.203 295.441 188.312 296.117 189.275C297.086 190.618 298.32 191.26 299.789 191.26C303.373 191.26 307.192 188.604 311.276 183.262C313.068 181.043 314.507 178.766 315.624 176.373C316.74 174.038 317.269 172.811 317.21 172.724Z" fill="white"/>
<path d="M357.045 165.543C354.813 171.323 353.138 175.964 352.022 179.525C350.905 183.087 350.347 185.539 350.347 186.969C350.347 188.808 351.228 189.742 353.02 189.742C355.694 189.742 359.161 187.232 363.391 182.211C365.389 179.759 368.385 175.38 372.322 169.017C373.879 166.506 375.524 165.251 377.228 165.251C379.167 165.251 380.137 166.185 380.137 168.024C380.137 171.206 376.464 177.628 369.09 187.319C361.423 197.449 354.313 202.528 347.762 202.528C344.941 202.528 342.621 201.36 340.829 198.967C339.565 197.274 338.919 195.201 338.919 192.749C338.919 188.604 340.182 182.882 342.709 175.555C345.235 168.228 348.996 159.325 353.99 148.816C366.799 122.136 379.843 100.125 393.181 82.8151C403.815 68.9202 412.629 61.9727 419.621 61.9727C421.854 61.9727 423.675 62.8192 425.085 64.5123C426.584 66.2054 427.318 68.1612 427.318 70.3797C427.318 80.7426 418.005 97.9654 399.409 122.077C391.065 132.79 381.106 143.533 369.502 154.246C366.505 157.019 362.333 160.785 357.045 165.543ZM364.977 147.882C380.46 134.717 394.297 118.078 406.489 97.9654C412.805 87.5441 415.978 80.6258 415.978 77.2396C415.978 75.6049 415.273 74.7876 413.863 74.7876C409.779 74.7876 402.317 82.8735 391.535 99.0746C382.604 112.415 373.762 128.674 364.977 147.882Z" fill="white"/>
<path d="M420.678 184.05C418.211 188.341 415.802 191.961 413.422 194.909C408.721 200.689 404.08 203.55 399.467 203.55C395.443 203.55 392.328 201.652 390.096 197.887C388.686 195.435 387.98 192.574 387.98 189.246C387.98 181.043 390.595 171.994 395.795 162.069C401.612 151.064 408.604 142.599 416.771 136.673C422.118 132.82 427.289 130.893 432.283 130.893C435.397 130.893 438.012 131.856 440.097 133.783C441.889 135.476 442.771 137.403 442.771 139.563C442.771 141.198 442.125 143.445 440.861 146.335C441.978 147.882 442.536 149.254 442.536 150.451C442.536 151.998 441.508 154.567 439.422 158.099C437.248 161.719 435.103 166.535 432.959 172.52C430.638 178.883 429.492 183.992 429.492 187.816C429.492 190.91 430.432 193.479 432.283 195.464C432.812 195.989 434.339 196.836 436.866 198.004C438.717 198.879 439.657 200.456 439.657 202.674C439.657 204.075 439.128 205.214 438.1 206.119C436.983 207.082 435.691 207.549 434.192 207.549C430.168 207.549 426.701 205.768 423.822 202.236C421.442 199.346 420.238 195.727 420.238 191.377C420.238 189.888 420.385 187.466 420.678 184.05ZM434.633 147.561C433.752 145.927 432.782 144.73 431.725 143.971C430.667 143.183 429.551 142.803 428.376 142.803C422.706 142.803 416.565 147.707 409.955 157.545C402.67 168.404 399.027 177.628 399.027 185.159C399.027 186.998 399.379 188.4 400.084 189.363C400.789 190.326 401.847 190.793 403.257 190.793C406.841 190.793 410.984 187.028 415.743 179.467C418.416 175.322 421.736 169.221 425.673 161.164C428.287 155.91 430.168 152.436 431.372 150.743C431.989 149.896 433.047 148.816 434.633 147.561Z" fill="white"/>
<path d="M517.185 101.235C522.179 101.235 525.998 103.015 528.672 106.548C530.816 109.35 531.903 112.765 531.903 116.764C531.903 123.945 529.494 132.119 524.647 141.285C520.417 149.196 515.128 156.289 508.783 162.595C504.611 166.652 501.35 168.695 498.97 168.695C497.413 168.695 495.944 167.907 494.622 166.36C493.653 165.251 493.183 163.996 493.183 162.595C493.183 159.997 495.445 157.048 499.999 153.72C506.403 148.991 511.486 143.825 515.305 138.191C520.887 130.046 523.677 123.186 523.677 117.553C523.677 115.276 523.178 113.553 522.179 112.444C521.18 111.335 519.682 110.78 517.655 110.78C513.571 110.78 507.754 113.729 500.234 119.654C491.685 126.31 482.636 135.359 473.118 146.831C460.984 161.398 451.76 175.731 445.443 189.859C438.892 204.513 435.631 217.007 435.631 227.341C435.631 232.303 437.07 236.507 439.979 239.98C443.181 243.892 447.088 245.848 451.701 245.848C459.75 245.848 469.857 239.63 482.048 227.224C485.691 223.458 490.128 217.97 495.327 210.818C498.765 206.235 500.939 202.966 501.908 201.068C503.025 198.938 504.317 197.857 505.816 197.857C507.461 197.857 508.254 198.646 508.254 200.193C508.254 203.521 504.082 210.993 495.768 222.612C488.835 232.303 481.226 240.214 472.882 246.344C463.511 253.233 454.639 256.648 446.325 256.648C437.629 256.648 430.872 252.766 426.112 245.001C423.057 240.039 421.529 234.405 421.529 228.041C421.529 212.074 429.109 191.932 444.297 167.586C457.253 146.89 470.914 130.222 485.28 117.553C497.678 106.664 508.313 101.235 517.185 101.235Z" fill="white"/>
<path d="M555.233 172.344C561.343 172.344 564.399 176.052 564.399 183.437C564.399 193.275 559.816 205.739 550.679 220.802C540.72 237.149 531.084 245.322 521.771 245.322C517.452 245.322 514.309 243.337 512.282 239.338C511.253 237.353 510.725 234.93 510.725 232.128C510.725 222.67 513.986 212.395 520.537 201.302C526.648 191.027 533.816 183.028 542.071 177.336C546.919 174.008 551.296 172.344 555.233 172.344ZM543.628 214.263C541.777 212.774 540.837 211.636 540.837 210.818C540.837 210.235 542.012 208.6 544.421 205.944C551.12 198.471 554.469 192.457 554.469 187.874C554.469 187.29 554.293 186.707 553.911 186.094C553.323 184.984 552.383 184.43 551.12 184.43C548.74 184.43 545.244 186.736 540.632 191.319C534.668 197.245 530.144 203.345 527 209.622C523.357 216.803 521.536 222.758 521.536 227.487C521.536 228.742 521.859 229.851 522.535 230.814C523.504 232.157 524.738 232.799 526.207 232.799C529.791 232.799 533.61 230.143 537.694 224.801C539.486 222.582 540.925 220.306 542.042 217.912C543.188 215.547 543.716 214.321 543.628 214.263Z" fill="white"/>
<path d="M583.496 207.053C581.264 212.833 579.589 217.474 578.473 221.035C577.356 224.597 576.798 227.049 576.798 228.479C576.798 230.318 577.68 231.252 579.472 231.252C582.145 231.252 585.612 228.742 589.842 223.721C591.84 221.269 594.837 216.89 598.773 210.527C600.33 208.016 601.975 206.761 603.679 206.761C605.618 206.761 606.588 207.695 606.588 209.534C606.588 212.716 602.916 219.138 595.542 228.829C587.874 238.959 580.764 244.038 574.213 244.038C571.393 244.038 569.072 242.87 567.28 240.477C566.016 238.784 565.37 236.711 565.37 234.259C565.37 230.114 566.633 224.392 569.16 217.065C571.686 209.738 575.447 200.835 580.441 190.326C593.25 163.646 606.294 141.635 619.632 124.325C630.267 110.43 639.08 103.483 646.072 103.483C648.305 103.483 650.126 104.329 651.536 106.022C653.035 107.715 653.769 109.671 653.769 111.89C653.769 122.252 644.456 139.475 625.86 163.587C617.516 174.3 607.557 185.043 595.953 195.756C592.927 198.558 588.755 202.324 583.496 207.053ZM591.399 189.421C606.882 176.256 620.719 159.617 632.911 139.504C639.227 129.083 642.4 122.165 642.4 118.779C642.4 117.144 641.695 116.327 640.285 116.327C636.201 116.327 628.739 124.413 617.957 140.614C609.056 153.925 600.183 170.184 591.399 189.421Z" fill="white"/>
<path d="M647.095 225.56C644.628 229.851 642.219 233.471 639.839 236.419C635.138 242.199 630.497 245.06 625.884 245.06C621.86 245.06 618.745 243.162 616.513 239.397C615.103 236.944 614.397 234.084 614.397 230.756C614.397 222.553 617.012 213.504 622.212 203.579C628.029 192.574 635.021 184.108 643.188 178.183C648.535 174.329 653.706 172.403 658.7 172.403C661.814 172.403 664.429 173.366 666.514 175.293C668.307 176.986 669.188 178.912 669.188 181.073C669.188 182.707 668.542 184.955 667.278 187.845C668.395 189.392 668.953 190.764 668.953 191.961C668.953 193.508 667.925 196.077 665.839 199.609C663.665 203.229 661.52 208.045 659.376 214.029C657.055 220.393 655.909 225.502 655.909 229.326C655.909 232.42 656.849 234.989 658.7 236.974C659.229 237.499 660.756 238.346 663.283 239.513C665.134 240.389 666.074 241.965 666.074 244.184C666.074 245.585 665.545 246.724 664.517 247.628C663.4 248.592 662.108 249.059 660.609 249.059C656.585 249.059 653.118 247.278 650.239 243.746C647.859 240.856 646.655 237.236 646.655 232.887C646.655 231.398 646.802 228.975 647.095 225.56ZM661.05 189.071C660.169 187.436 659.199 186.239 658.142 185.48C657.084 184.692 655.968 184.313 654.793 184.313C649.123 184.313 642.982 189.217 636.372 199.054C629.087 209.913 625.444 219.138 625.444 226.669C625.444 228.508 625.796 229.909 626.501 230.873C627.206 231.836 628.264 232.303 629.674 232.303C633.258 232.303 637.401 228.537 642.16 220.977C644.833 216.832 648.153 210.731 652.09 202.674C654.704 197.42 656.585 193.946 657.789 192.253C658.406 191.406 659.493 190.326 661.05 189.071Z" fill="white"/>
<path opacity="0.49" d="M70.2798 354.848C88.5007 354.848 103.272 340.171 103.272 322.066C103.272 303.961 88.5007 289.284 70.2798 289.284C52.059 289.284 37.2881 303.961 37.2881 322.066C37.2881 340.171 52.059 354.848 70.2798 354.848Z" fill="white"/>
<path opacity="0.49" d="M591.391 364.393C609.612 364.393 624.383 349.716 624.383 331.612C624.383 313.507 609.612 298.83 591.391 298.83C573.17 298.83 558.399 313.507 558.399 331.612C558.399 349.716 573.17 364.393 591.391 364.393Z" fill="white"/>
<path opacity="0.49" d="M145.871 276.382C154.989 276.382 162.382 269.037 162.382 259.976C162.382 250.916 154.989 243.571 145.871 243.571C136.752 243.571 129.36 250.916 129.36 259.976C129.36 269.037 136.752 276.382 145.871 276.382Z" fill="white"/>
<path opacity="0.49" d="M321.967 331.641C331.085 331.641 338.477 324.296 338.477 315.235C338.477 306.175 331.085 298.83 321.967 298.83C312.848 298.83 305.456 306.175 305.456 315.235C305.456 324.296 312.848 331.641 321.967 331.641Z" fill="white"/>
<path opacity="0.49" d="M715.894 312.666C725.013 312.666 732.405 305.321 732.405 296.261C732.405 287.201 725.013 279.856 715.894 279.856C706.776 279.856 699.384 287.201 699.384 296.261C699.384 305.321 706.776 312.666 715.894 312.666Z" fill="white"/>
<path opacity="0.49" d="M50.2429 220.481C55.6459 220.481 60.0259 216.129 60.0259 210.76C60.0259 205.391 55.6459 201.039 50.2429 201.039C44.8399 201.039 40.46 205.391 40.46 210.76C40.46 216.129 44.8399 220.481 50.2429 220.481Z" fill="white"/>
<path opacity="0.49" d="M790.019 351.053C795.422 351.053 799.802 346.701 799.802 341.332C799.802 335.964 795.422 331.612 790.019 331.612C784.616 331.612 780.236 335.964 780.236 341.332C780.236 346.701 784.616 351.053 790.019 351.053Z" fill="white"/>
<path opacity="0.49" d="M500.935 305.982C506.338 305.982 510.718 301.63 510.718 296.261C510.718 290.892 506.338 286.54 500.935 286.54C495.532 286.54 491.152 290.892 491.152 296.261C491.152 301.63 495.532 305.982 500.935 305.982Z" fill="white"/>
<path opacity="0.49" d="M819.983 237.587C825.386 237.587 829.766 233.235 829.766 227.866C829.766 222.498 825.386 218.146 819.983 218.146C814.58 218.146 810.2 222.498 810.2 227.866C810.2 233.235 814.58 237.587 819.983 237.587Z" fill="white"/>
<path opacity="0.49" d="M848.1 310.244C851.978 310.244 855.122 307.12 855.122 303.267C855.122 299.414 851.978 296.29 848.1 296.29C844.223 296.29 841.079 299.414 841.079 303.267C841.079 307.12 844.223 310.244 848.1 310.244Z" fill="white"/>
<path opacity="0.49" d="M219.845 299.063C225.248 299.063 229.628 294.711 229.628 289.343C229.628 283.974 225.248 279.622 219.845 279.622C214.442 279.622 210.062 283.974 210.062 289.343C210.062 294.711 214.442 299.063 219.845 299.063Z" fill="white"/>
<path opacity="0.49" d="M279.367 253.934C282.06 253.934 284.244 251.764 284.244 249.088C284.244 246.412 282.06 244.242 279.367 244.242C276.674 244.242 274.49 246.412 274.49 249.088C274.49 251.764 276.674 253.934 279.367 253.934Z" fill="white"/>
<path opacity="0.49" d="M124.485 177.19C127.179 177.19 129.362 175.021 129.362 172.345C129.362 169.668 127.179 167.499 124.485 167.499C121.792 167.499 119.608 169.668 119.608 172.345C119.608 175.021 121.792 177.19 124.485 177.19Z" fill="white"/>
<path opacity="0.49" d="M403.902 289.343C406.596 289.343 408.779 287.173 408.779 284.497C408.779 281.821 406.596 279.651 403.902 279.651C401.209 279.651 399.025 281.821 399.025 284.497C399.025 287.173 401.209 289.343 403.902 289.343Z" fill="white"/>
<path opacity="0.49" d="M743.277 196.106C745.971 196.106 748.154 193.937 748.154 191.261C748.154 188.584 745.971 186.415 743.277 186.415C740.584 186.415 738.4 188.584 738.4 191.261C738.4 193.937 740.584 196.106 743.277 196.106Z" fill="white"/>
</g>
<defs>
<clipPath id="clip0_31_1893">
<rect width="876" height="408" fill="white"/>
</clipPath>
</defs>
</svg>
